<?xml version="1.0" standalone="no"?><!DOCTYPE svg PUBLIC "-//W3C//DTD SVG 1.1//EN" "http://www.w3.org/Graphics/SVG/1.1/DTD/svg11.dtd"><svg t="1558057467961" class="icon" style="" viewBox="0 0 1024 1024" version="1.1" xmlns="http://www.w3.org/2000/svg" p-id="893" xmlns:xlink="http://www.w3.org/1999/xlink" width="200" height="200"><defs><style type="text/css"></style></defs><path d="M354.40128 0c-87.04 0-157.44 70.55872-157.44 157.59872v275.68128H78.72c-21.6576 0-39.36256 17.69984-39.36256 39.36256v236.31872c0 21.6576 17.69984 39.35744 39.36256 39.35744h118.24128v118.08256c0 87.04 70.4 157.59872 157.44 157.59872h472.63744c87.04 0 157.59872-70.55872 157.59872-157.59872V315.0336c0-41.74848-38.9888-81.93024-107.52-149.27872l-29.11744-29.12256L818.87744 107.52C751.5392 38.9888 711.39328 0 669.59872 0H354.4064z m0 78.72h287.20128c28.35456 7.0912 27.99616 42.1376 27.99616 76.8v120.16128c0 21.6576 17.69984 39.35744 39.36256 39.35744h118.07744c39.38816 0 78.87872-0.0256 78.87872 39.36256v512c0 43.32032-35.55328 78.87872-78.87872 78.87872H354.4064c-43.32544 0-78.72-35.5584-78.72-78.87872v-118.08256h393.91744c21.66272 0 39.36256-17.69472 39.36256-39.35744V472.64256c0-21.66272-17.69984-39.36256-39.36256-39.36256H275.68128V157.59872c0-43.32032 35.39456-78.87872 78.72-78.87872zM409.7536 501.91872c17.28 0 32.64 3.2 46.08 9.6l-7.68 18.24256c-13.44-5.76-26.24-8.64256-38.4-8.64256-10.24 0-17.92 2.24256-23.04 6.72256s-7.68 10.55744-7.68 18.23744c0 8.96 1.92 15.68256 5.76 20.16256 4.48 3.84 15.04256 9.6 31.68256 17.28 17.28 7.04 28.47744 14.39744 33.59744 22.07744 5.76 7.04 8.64256 16 8.64256 26.88 0 14.72-5.12 26.56256-15.36 35.52256s-24.96 13.44-44.16 13.44c-18.56 0-33.28-2.56-44.16-7.68v-21.12c15.36 6.4 30.08 9.6 44.16 9.6 12.8 0 22.07744-2.24256 27.83744-6.72256 6.4-4.48 9.6-11.52 9.6-21.12 0-7.68-2.23744-14.08-6.71744-19.2-3.2-3.2-15.04256-9.27744-35.52256-18.23744-13.44-6.4-23.04-13.44-28.8-21.12s-8.63744-17.60256-8.63744-29.76256c0-13.44 4.48-23.99744 13.44-31.67744 9.6-8.32 22.71744-12.48256 39.35744-12.48256z m-111.36 1.92h22.08256v172.8c0 16-4.16256 28.16-12.48256 36.48-8.32 8.96-20.15744 13.44-35.51744 13.44-7.04 0-13.12256-0.95744-18.24256-2.87744v-19.2c6.4 1.28 12.8 1.92 19.2 1.92 8.32 0 14.40256-2.24256 18.24256-6.72256 4.48-4.48 6.71744-11.19744 6.71744-20.15744V503.83872z" p-id="894"></path></svg>